<svg xmlns="http://www.w3.org/2000/svg" xmlns:xlink="http://www.w3.org/1999/xlink" xmlns:lucid="lucid" width="801" height="1201"><g transform="translate(2300.5000000016535 -1639.4999999975068)" lucid:page-tab-id="0_0"><path d="M-2500-500h5500v3500h-5500z" fill="#fff"/><path d="M-2300 1646a6 6 0 0 1 6-6h788a6 6 0 0 1 6 6v1188a6 6 0 0 1-6 6h-788a6 6 0 0 1-6-6z" stroke="#000" fill="#fff"/><path d="M-2260 1946a6 6 0 0 1 6-6h708a6 6 0 0 1 6 6v648a6 6 0 0 1-6 6h-708a6 6 0 0 1-6-6z" stroke="#3a414a" fill="#fff"/><path d="M-2180 2286a6 6 0 0 1 6-6h548a6 6 0 0 1 6 6v288a6 6 0 0 1-6 6h-548a6 6 0 0 1-6-6z" stroke="#3a414a" fill="#fff"/><path d="M-2152.86 2478.54a6 6 0 0 1 6-6h193.72a6 6 0 0 1 6 6v36.25a6 6 0 0 1-6 6h-193.72a6 6 0 0 1-6-6z" stroke="#3a414a" fill="#fff"/><use xlink:href="#a" transform="matrix(1,0,0,1,-2140.859771517228,2484.542206254839) translate(9.54938271604938 19.34027777777778)"/><path d="M-1852.86 2478.54a6 6 0 0 1 6-6h193.72a6 6 0 0 1 6 6v36.25a6 6 0 0 1-6 6h-193.72a6 6 0 0 1-6-6z" stroke="#3a414a" fill="#fff"/><use xlink:href="#b" transform="matrix(1,0,0,1,-1840.8597715172282,2484.542206254839) translate(10.166666666666657 19.34027777777778)"/><path d="M-2002.86 2317.75a6 6 0 0 1 6-6h193.72a6 6 0 0 1 6 6V2354a6 6 0 0 1-6 6h-193.72a6 6 0 0 1-6-6z" stroke="#3a414a" fill="#fff"/><use xlink:href="#c" transform="matrix(1,0,0,1,-1990.8597715172282,2323.7510880591853) translate(13.31481481481481 19.34027777777778)"/><path d="M-1756.36 2465.68l-98.82-98.82" stroke="#000" stroke-width="2" fill="none"/><path d="M-1751.4 2470.65l-14.52-3.73 10.8-10.8zM-1860.15 2361.9l14.53 3.72-10.8 10.8z" stroke="#000" stroke-width="2"/><path d="M-2043.64 2465.68l98.82-98.82" stroke="#000" stroke-width="2" fill="none"/><path d="M-2048.6 2470.65l3.72-14.53 10.8 10.8zM-1939.85 2361.9l-3.73 14.52-10.8-10.8z" stroke="#000" stroke-width="2"/><path d="M-2020 1966a6 6 0 0 1 6-6h228a6 6 0 0 1 6 6v248a6 6 0 0 1-6 6h-228a6 6 0 0 1-6-6z" stroke="#000" fill="#fff"/><use xlink:href="#d" transform="matrix(1,0,0,1,-2008,1972) translate(67.90740740740742 121.02777777777777)"/><path d="M-1900 2069.05c-35.1 0-63.57-10.57-63.57-24.57v130.95c0 13.37 27.97 24.4 62.68 24.57h.9c35.1 0 63.57-10.57 63.57-24.57v-130.95c0 13.53-28.48 24.57-63.57 24.57z" stroke="#000" stroke-opacity="0" fill="url(#e)"/><path d="M-1836.43 2044.57c0 13.56-28.48 24.57-63.57 24.57-35.1 0-63.57-10.6-63.57-24.57 0-13.96 28.48-24.57 63.57-24.57 35.1 0 63.57 10.6 63.57 24.57" stroke="#000" stroke-opacity="0" fill="#e8e8e8"/><path d="M-1851.3 2042.58c0 8.7-21.85 15.72-48.67 15.72-26.9 0-48.85-7-48.85-15.6s21.84-15.72 48.85-15.72c26.92 0 48.66 7.02 48.66 15.6" stroke="#000" stroke-opacity="0" fill="#50e6ff"/><path d="M-1899.92 2046.53c-13.84-.37-25.6 1.46-38.73 6.03 13.14 4.48 24.9 6.2 38.73 5.72 13.76.35 25.5-1.52 38.57-6.14-13.14-4.35-24.8-6.05-38.57-5.6z" stroke="#000" stroke-opacity="0" fill="#198ab3"/><path d="M-1870.24 2110.14v4.42c-.43 2.3-.7 4.33-.77 6.63 0 1.24 0 3.16.5 4.9.43 1.72 0 2.88 0 3.84-.1 3.36-.86 6.25-2.48 9.03-.1.3-.1.5 0 .77l.94 1.25c4.7-8.27 7.88-15.87 10.54-25.2 2.74-10.08 3.08-17.3.86-20.37-6.52-8.55-16.54-12-26.57-9.03 3.6 1.82 6.33 4.03 9 7 4.87 4.44 7.53 10 7.96 16.74zm-3.1.77c-2.73-.66-5.3-.38-7.8.97-2.9 1.92-1.96 5.86.02 10.57 1.02 3.27 2.05 5.96 3.42 9.04l.94 1.73c.43.87.78 1.55 1.03 2.12l.86 1.35c1.2-2.2 1.7-4.33 1.7-6.83.1-1.25.1-2.3 0-3.55 0-1.84 0-3.86-.4-5.2.07-2.6.33-4.7.76-7.3-.36-1.16-.18-2.32-.1-3.18zm-3 4.43c-.5.48-1.02.87-1.7 1.06-.5.08-.94.08-1.46 0-.5-.6-.77-1.26-.68-2.03 0-.77 1.1-1.44 2.4-1.64h1.88s.95 0 .95.87c-.18.58-.43 1.06-.95 1.35zm-46.43 9.42v-1.83c.08-.67.08-1.15 0-1.82-.35-3.66-.35-6.83 0-10.58.6-4.23 1.54-7.7 3-11.63 1.2-3.95 3-7.02 5.74-10-4.63-1.45-8.66-2.12-13.37-2.12-4.03-.2-7.54.87-10.97 3.17-5.14 5-7.37 11.92-6.17 19.32.94 8.46 2.5 15.57 4.9 23.75 3.4 12 7.27 19.4 10.6 20.66 1.56.48 3.1 0 4.73-2.3 2.73-3.56 5.3-6.64 6.75-8.46-4.62-5-6.34-11.64-4.8-18.56zm2.57 4.23c0 2.1.17 3.84.6 5.86.6 1.83 1.46 3.27 2.57 4.7 1.03 1.16 2.14 2.03 3.5 2.7 1.3.48 2.4.77 3.87.77 0-1.72 1.37-4.03 2.23-6.33.94-2.12 1.54-3.94 2.14-6.25.27-4.13.27-7.6 0-11.73 0-.97 0-2.02-.6-3.18-.08-1.15-.5-2.1-1.2-2.88-.85-.87-1.7-1.35-2.82-1.73h-1.97c-1.7.3-3.16.68-4.7 1.55-1.2.57-2.14 1.15-3.17 2V2127.83zm6.5-14.23c.95-.3 1.9-.3 2.84 0 .68.1 1.28.3 1.88.68.86 0 .95 1.15.86 1.44-.26.57-.68 1.06-1.2 1.34-.17-.08-.34-.18-.6-.37-1.45-.3-2.48-1.44-2.74-2.98zm7.38 31.82c-.5 0-.94.2-1.28.57l-1.38 1.83c-1.7 2.2-2.4 2.98-7.28 4.04-.94.1-1.7.4-2.57 1.07.77.57 1.46.96 2.4 1.15 2.4.86 4.7.86 7.1 0 1.55-.77 2.67-1.54 3.87-2.8 1.03-.85 1.7-1.9 2.06-3.26.08-1.15-.26-2.1-1.03-2.98-.43-.28-.95-.38-1.46-.2zm45.67 0c-3.76 1.44-7.36 1.44-11.13 0-.52-.2-.95-.2-1.46 0-.7.2-1.3.67-1.63 1.44-.17 1.16-.17 2.13 0 3.28 3.77.96 7.28.57 10.88-1.06 1.9-.86 3.36-1.92 4.73-3.55zm-23.73-22.7c-1.46-4.3-3.43-10.56 1.7-14.4 2.84-1.64 5.75-2.2 8.84-1.64-1.37-4.7-3.26-8.46-6.34-12.1l-.94-1.07-.6-.67c-.18-.3-.35-.5-.6-.68-2.06-1.92-4.12-3.27-6.7-4.42-3.6-1.73-7.02-2.4-10.96-2.3-2.48-.2-4.63.1-6.94 1.14-1.03.3-1.97.68-3 1.16-3.5 2.78-5.82 6.15-7.28 10.57-1.03 3.65-1.72 6.82-2.06 10.67 3.1-2.02 6.26-2.8 9.86-2.5 4.62.38 8.05 4.7 7.62 9.6.43 4.82.43 8.76 0 13.47-.6 2.5-1.28 4.43-2.23 6.74-.6 1.82-1.46 3.65-1.8 5.2 1.45-.1 2.74.37 3.77 1.43 1.37 1.54 2.05 3.46 1.88 5.67h.17v2.5c-.77 9.13-.08 17 2.4 25.86.6 1.05 1.37 1.73 2.4 2.2.94.68 1.9 1.06 3 1.06 3.77.4 7.2-.86 9.94-3.55 1.8-2 2.74-4.22 2.9-7 .7-4.72 2.16-17.98 2.33-21.16-.18-1.73.16-3.17.93-4.7.7-1.16 1.54-1.93 2.66-2.5-4.9-5.87-8.15-11.73-10.64-19.23z" stroke="#000" stroke-opacity="0" fill="#f2f2f2"/><path d="M-1900 2302.26v-72.77" stroke="#000" stroke-width="2" fill="none"/><path d="M-1900 2309.3l-7.64-12.92h15.28zM-1900 2222.46l7.64 12.92h-15.28z" stroke="#000" stroke-width="2"/><path d="M-1780 1966a6 6 0 0 1 6-6h228a6 6 0 0 1 6 6v48a6 6 0 0 1-6 6h-228a6 6 0 0 1-6-6z" stroke="#000" stroke-opacity="0" stroke-width="4" fill="#fff" fill-opacity="0"/><use xlink:href="#f" transform="matrix(1,0,0,1,-1775,1965) translate(25.617283950617278 30.27777777777778)"/><use xlink:href="#g" transform="matrix(1,0,0,1,-1775,1965) translate(102.03703703703702 30.27777777777778)"/><path d="M-1980 1686a6 6 0 0 1 6-6h148a6 6 0 0 1 6 6v108a6 6 0 0 1-6 6h-148a6 6 0 0 1-6-6z" stroke="#3a414a" fill="#fff"/><use xlink:href="#f" transform="matrix(1,0,0,1,-1968,1692) translate(6.981481481481481 53.77777777777778)"/><use xlink:href="#h" transform="matrix(1,0,0,1,-1968,1692) translate(83.40123456790123 53.77777777777778)"/><path d="M-1900 1801.5v129" stroke="#000" stroke-width="2" fill="none"/><path d="M-1899.03 1801.53h-1.94v-1.03h1.94z" stroke="#000" stroke-width=".05"/><path d="M-1900 1937.54l-7.64-12.92h15.28z" stroke="#000" stroke-width="2"/><path d="M-2260 2686a6 6 0 0 1 6-6h708a6 6 0 0 1 6 6v108a6 6 0 0 1-6 6h-708a6 6 0 0 1-6-6z" stroke="#3a414a" fill="#fff"/><use xlink:href="#i" transform="matrix(1,0,0,1,-2248,2692) translate(280.80864197530866 53.77777777777778)"/><use xlink:href="#j" transform="matrix(1,0,0,1,-2248,2692) translate(368.3395061728395 53.77777777777778)"/><path d="M-1906.2 2672.97l-143.1-150.95" stroke="#000" stroke-width="2" fill="none"/><path d="M-1901.35 2678.07l-14.43-4.1 11.1-10.52z" stroke="#000" stroke-width="2"/><path d="M-2048.6 2521.36l-1.4 1.35-1.34-1.4h2.68z" stroke="#000" stroke-width=".05"/><path d="M-2180 2286a6 6 0 0 1 6-6h168a6 6 0 0 1 6 6v28.8a6 6 0 0 1-6 6h-168a6 6 0 0 1-6-6z" stroke="#000" stroke-opacity="0" stroke-width="4" fill="#fff" fill-opacity="0"/><use xlink:href="#k" transform="matrix(1,0,0,1,-2175,2285) translate(0 19.00416666666667)"/><use xlink:href="#l" transform="matrix(1,0,0,1,-2175,2285) translate(70.9925925925926 19.00416666666667)"/><path d="M-2020 1966a6 6 0 0 1 6-6h228a6 6 0 0 1 6 6v48a6 6 0 0 1-6 6h-228a6 6 0 0 1-6-6z" stroke="#000" stroke-opacity="0" stroke-width="4" fill="#fff" fill-opacity="0"/><g><use xlink:href="#m" transform="matrix(1,0,0,1,-2015,1965) translate(9.969135802469125 30.27777777777778)"/><use xlink:href="#n" transform="matrix(1,0,0,1,-2015,1965) translate(136.26543209876542 30.27777777777778)"/></g><defs><path fill="#3a414a" d="M115-194c55 1 70 41 70 98S169 2 115 4C84 4 66-9 55-30l1 105H24l-1-265h31l2 30c10-21 28-34 59-34zm-8 174c40 0 45-34 45-75s-6-73-45-74c-42 0-51 32-51 76 0 43 10 73 51 73" id="o"/><path fill="#3a414a" d="M114-163C36-179 61-72 57 0H25l-1-190h30c1 12-1 29 2 39 6-27 23-49 58-41v29" id="p"/><path fill="#3a414a" d="M100-194c62-1 85 37 85 99 1 63-27 99-86 99S16-35 15-95c0-66 28-99 85-99zM99-20c44 1 53-31 53-75 0-43-8-75-51-75s-53 32-53 75 10 74 51 75" id="q"/><path fill="#3a414a" d="M96-169c-40 0-48 33-48 73s9 75 48 75c24 0 41-14 43-38l32 2c-6 37-31 61-74 61-59 0-76-41-82-99-10-93 101-131 147-64 4 7 5 14 7 22l-32 3c-4-21-16-35-41-35" id="r"/><path fill="#3a414a" d="M100-194c63 0 86 42 84 106H49c0 40 14 67 53 68 26 1 43-12 49-29l28 8c-11 28-37 45-77 45C44 4 14-33 15-96c1-61 26-98 85-98zm52 81c6-60-76-77-97-28-3 7-6 17-6 28h103" id="s"/><path fill="#3a414a" d="M135-143c-3-34-86-38-87 0 15 53 115 12 119 90S17 21 10-45l28-5c4 36 97 45 98 0-10-56-113-15-118-90-4-57 82-63 122-42 12 7 21 19 24 35" id="t"/><path fill="#3a414a" d="M-5 72V49h209v23H-5" id="u"/><path fill="#3a414a" d="M85-194c31 0 48 13 60 33l-1-100h32l1 261h-30c-2-10 0-23-3-31C134-8 116 4 85 4 32 4 16-35 15-94c0-66 23-100 70-100zm9 24c-40 0-46 34-46 75 0 40 6 74 45 74 42 0 51-32 51-76 0-42-9-74-50-73" id="v"/><path fill="#3a414a" d="M141-36C126-15 110 5 73 4 37 3 15-17 15-53c-1-64 63-63 125-63 3-35-9-54-41-54-24 1-41 7-42 31l-33-3c5-37 33-52 76-52 45 0 72 20 72 64v82c-1 20 7 32 28 27v20c-31 9-61-2-59-35zM48-53c0 20 12 33 32 33 41-3 63-29 60-74-43 2-92-5-92 41" id="w"/><path fill="#3a414a" d="M59-47c-2 24 18 29 38 22v24C64 9 27 4 27-40v-127H5v-23h24l9-43h21v43h35v23H59v120" id="x"/><path fill="#3a414a" d="M33 0v-38h34V0H33" id="y"/><path fill="#3a414a" d="M179-190L93 31C79 59 56 82 12 73V49c39 6 53-20 64-50L1-190h34L92-34l54-156h33" id="z"/><g id="a"><use transform="matrix(0.06172839506172839,0,0,0.06172839506172839,0,0)" xlink:href="#o"/><use transform="matrix(0.06172839506172839,0,0,0.06172839506172839,12.345679012345679,0)" xlink:href="#p"/><use transform="matrix(0.06172839506172839,0,0,0.06172839506172839,19.691358024691358,0)" xlink:href="#q"/><use transform="matrix(0.06172839506172839,0,0,0.06172839506172839,32.03703703703704,0)" xlink:href="#r"/><use transform="matrix(0.06172839506172839,0,0,0.06172839506172839,43.14814814814815,0)" xlink:href="#s"/><use transform="matrix(0.06172839506172839,0,0,0.06172839506172839,55.49382716049383,0)" xlink:href="#t"/><use transform="matrix(0.06172839506172839,0,0,0.06172839506172839,66.60493827160494,0)" xlink:href="#t"/><use transform="matrix(0.06172839506172839,0,0,0.06172839506172839,77.71604938271605,0)" xlink:href="#u"/><use transform="matrix(0.06172839506172839,0,0,0.06172839506172839,90.06172839506173,0)" xlink:href="#v"/><use transform="matrix(0.06172839506172839,0,0,0.06172839506172839,102.40740740740742,0)" xlink:href="#w"/><use transform="matrix(0.06172839506172839,0,0,0.06172839506172839,114.7530864197531,0)" xlink:href="#x"/><use transform="matrix(0.06172839506172839,0,0,0.06172839506172839,120.92592592592594,0)" xlink:href="#w"/><use transform="matrix(0.06172839506172839,0,0,0.06172839506172839,133.27160493827162,0)" xlink:href="#y"/><use transform="matrix(0.06172839506172839,0,0,0.06172839506172839,139.44444444444446,0)" xlink:href="#o"/><use transform="matrix(0.06172839506172839,0,0,0.06172839506172839,151.79012345679013,0)" xlink:href="#z"/></g><path fill="#3a414a" d="M117-194c89-4 53 116 60 194h-32v-121c0-31-8-49-39-48C34-167 62-67 57 0H25l-1-190h30c1 10-1 24 2 32 11-22 29-35 61-36" id="A"/><path fill="#3a414a" d="M24 0v-261h32V0H24" id="B"/><path fill="#3a414a" d="M9 0v-24l116-142H16v-24h144v24L44-24h123V0H9" id="C"/><g id="b"><use transform="matrix(0.06172839506172839,0,0,0.06172839506172839,0,0)" xlink:href="#w"/><use transform="matrix(0.06172839506172839,0,0,0.06172839506172839,12.345679012345679,0)" xlink:href="#A"/><use transform="matrix(0.06172839506172839,0,0,0.06172839506172839,24.691358024691358,0)" xlink:href="#w"/><use transform="matrix(0.06172839506172839,0,0,0.06172839506172839,37.03703703703704,0)" xlink:href="#B"/><use transform="matrix(0.06172839506172839,0,0,0.06172839506172839,41.91358024691358,0)" xlink:href="#z"/><use transform="matrix(0.06172839506172839,0,0,0.06172839506172839,53.0246913580247,0)" xlink:href="#C"/><use transform="matrix(0.06172839506172839,0,0,0.06172839506172839,64.13580246913581,0)" xlink:href="#s"/><use transform="matrix(0.06172839506172839,0,0,0.06172839506172839,76.4814814814815,0)" xlink:href="#u"/><use transform="matrix(0.06172839506172839,0,0,0.06172839506172839,88.82716049382718,0)" xlink:href="#v"/><use transform="matrix(0.06172839506172839,0,0,0.06172839506172839,101.17283950617286,0)" xlink:href="#w"/><use transform="matrix(0.06172839506172839,0,0,0.06172839506172839,113.51851851851855,0)" xlink:href="#x"/><use transform="matrix(0.06172839506172839,0,0,0.06172839506172839,119.69135802469138,0)" xlink:href="#w"/><use transform="matrix(0.06172839506172839,0,0,0.06172839506172839,132.03703703703707,0)" xlink:href="#y"/><use transform="matrix(0.06172839506172839,0,0,0.06172839506172839,138.2098765432099,0)" xlink:href="#o"/><use transform="matrix(0.06172839506172839,0,0,0.06172839506172839,150.55555555555557,0)" xlink:href="#z"/></g><path fill="#3a414a" d="M177-190C167-65 218 103 67 71c-23-6-38-20-44-43l32-5c15 47 100 32 89-28v-30C133-14 115 1 83 1 29 1 15-40 15-95c0-56 16-97 71-98 29-1 48 16 59 35 1-10 0-23 2-32h30zM94-22c36 0 50-32 50-73 0-42-14-75-50-75-39 0-46 34-46 75s6 73 46 73" id="D"/><path fill="#3a414a" d="M84 4C-5 8 30-112 23-190h32v120c0 31 7 50 39 49 72-2 45-101 50-169h31l1 190h-30c-1-10 1-25-2-33-11 22-28 36-60 37" id="E"/><path fill="#3a414a" d="M24-231v-30h32v30H24zM24 0v-190h32V0H24" id="F"/><g id="c"><use transform="matrix(0.06172839506172839,0,0,0.06172839506172839,0,0)" xlink:href="#o"/><use transform="matrix(0.06172839506172839,0,0,0.06172839506172839,12.345679012345679,0)" xlink:href="#q"/><use transform="matrix(0.06172839506172839,0,0,0.06172839506172839,24.691358024691358,0)" xlink:href="#t"/><use transform="matrix(0.06172839506172839,0,0,0.06172839506172839,35.80246913580247,0)" xlink:href="#x"/><use transform="matrix(0.06172839506172839,0,0,0.06172839506172839,41.97530864197531,0)" xlink:href="#D"/><use transform="matrix(0.06172839506172839,0,0,0.06172839506172839,54.32098765432099,0)" xlink:href="#p"/><use transform="matrix(0.06172839506172839,0,0,0.06172839506172839,61.666666666666664,0)" xlink:href="#s"/><use transform="matrix(0.06172839506172839,0,0,0.06172839506172839,74.01234567901234,0)" xlink:href="#t"/><use transform="matrix(0.06172839506172839,0,0,0.06172839506172839,85.12345679012346,0)" xlink:href="#u"/><use transform="matrix(0.06172839506172839,0,0,0.06172839506172839,97.46913580246914,0)" xlink:href="#E"/><use transform="matrix(0.06172839506172839,0,0,0.06172839506172839,109.81481481481482,0)" xlink:href="#x"/><use transform="matrix(0.06172839506172839,0,0,0.06172839506172839,115.98765432098766,0)" xlink:href="#F"/><use transform="matrix(0.06172839506172839,0,0,0.06172839506172839,120.8641975308642,0)" xlink:href="#B"/><use transform="matrix(0.06172839506172839,0,0,0.06172839506172839,125.74074074074075,0)" xlink:href="#y"/><use transform="matrix(0.06172839506172839,0,0,0.06172839506172839,131.9135802469136,0)" xlink:href="#o"/><use transform="matrix(0.06172839506172839,0,0,0.06172839506172839,144.25925925925927,0)" xlink:href="#z"/></g><path fill="#3a414a" d="M30-248c87 1 191-15 191 75 0 78-77 80-158 76V0H30v-248zm33 125c57 0 124 11 124-50 0-59-68-47-124-48v98" id="G"/><g id="d"><use transform="matrix(0.06172839506172839,0,0,0.06172839506172839,0,0)" xlink:href="#G"/><use transform="matrix(0.06172839506172839,0,0,0.06172839506172839,14.814814814814813,0)" xlink:href="#p"/><use transform="matrix(0.06172839506172839,0,0,0.06172839506172839,22.160493827160494,0)" xlink:href="#q"/><use transform="matrix(0.06172839506172839,0,0,0.06172839506172839,34.50617283950617,0)" xlink:href="#r"/><use transform="matrix(0.06172839506172839,0,0,0.06172839506172839,45.61728395061728,0)" xlink:href="#s"/><use transform="matrix(0.06172839506172839,0,0,0.06172839506172839,57.962962962962955,0)" xlink:href="#t"/><use transform="matrix(0.06172839506172839,0,0,0.06172839506172839,69.07407407407406,0)" xlink:href="#t"/></g><linearGradient gradientUnits="userSpaceOnUse" id="e" x1="-1963.65" y1="2110.12" x2="-1836.41" y2="2110.09"><stop offset="0%" stop-color="#005ba1"/><stop offset="7%" stop-color="#0060a9"/><stop offset="36%" stop-color="#0071c8"/><stop offset="52%" stop-color="#0078d4"/><stop offset="64%" stop-color="#0074cd"/><stop offset="82%" stop-color="#006abb"/><stop offset="100%" stop-color="#005ba1"/></linearGradient><path fill="#3a414a" d="M30-248c118-7 216 8 213 122C240-48 200 0 122 0H30v-248zM63-27c89 8 146-16 146-99s-60-101-146-95v194" id="H"/><path fill="#3a414a" d="M143 0L79-87 56-68V0H24v-261h32v163l83-92h37l-77 82L181 0h-38" id="I"/><g id="f"><use transform="matrix(0.06172839506172839,0,0,0.06172839506172839,0,0)" xlink:href="#H"/><use transform="matrix(0.06172839506172839,0,0,0.06172839506172839,15.987654320987653,0)" xlink:href="#q"/><use transform="matrix(0.06172839506172839,0,0,0.06172839506172839,28.333333333333332,0)" xlink:href="#r"/><use transform="matrix(0.06172839506172839,0,0,0.06172839506172839,39.44444444444444,0)" xlink:href="#I"/><use transform="matrix(0.06172839506172839,0,0,0.06172839506172839,50.55555555555556,0)" xlink:href="#s"/><use transform="matrix(0.06172839506172839,0,0,0.06172839506172839,62.901234567901234,0)" xlink:href="#p"/></g><g id="g"><use transform="matrix(0.06172839506172839,0,0,0.06172839506172839,0,0)" xlink:href="#r"/><use transform="matrix(0.06172839506172839,0,0,0.06172839506172839,11.11111111111111,0)" xlink:href="#q"/><use transform="matrix(0.06172839506172839,0,0,0.06172839506172839,23.45679012345679,0)" xlink:href="#A"/><use transform="matrix(0.06172839506172839,0,0,0.06172839506172839,35.80246913580247,0)" xlink:href="#x"/><use transform="matrix(0.06172839506172839,0,0,0.06172839506172839,41.97530864197531,0)" xlink:href="#w"/><use transform="matrix(0.06172839506172839,0,0,0.06172839506172839,54.32098765432099,0)" xlink:href="#F"/><use transform="matrix(0.06172839506172839,0,0,0.06172839506172839,59.19753086419753,0)" xlink:href="#A"/><use transform="matrix(0.06172839506172839,0,0,0.06172839506172839,71.54320987654322,0)" xlink:href="#s"/><use transform="matrix(0.06172839506172839,0,0,0.06172839506172839,83.8888888888889,0)" xlink:href="#p"/><use transform="matrix(0.06172839506172839,0,0,0.06172839506172839,91.23456790123458,0)" xlink:href="#t"/></g><path fill="#3a414a" d="M197 0v-115H63V0H30v-248h33v105h134v-105h34V0h-34" id="J"/><g id="h"><use transform="matrix(0.06172839506172839,0,0,0.06172839506172839,0,0)" xlink:href="#J"/><use transform="matrix(0.06172839506172839,0,0,0.06172839506172839,15.987654320987653,0)" xlink:href="#q"/><use transform="matrix(0.06172839506172839,0,0,0.06172839506172839,28.333333333333332,0)" xlink:href="#t"/><use transform="matrix(0.06172839506172839,0,0,0.06172839506172839,39.44444444444444,0)" xlink:href="#x"/></g><path fill="#3a414a" d="M30 0v-248h187v28H63v79h144v27H63v87h162V0H30" id="K"/><path fill="#3a414a" d="M141 0L90-78 38 0H4l68-98-65-92h35l48 74 47-74h35l-64 92 68 98h-35" id="L"/><g id="i"><use transform="matrix(0.06172839506172839,0,0,0.06172839506172839,0,0)" xlink:href="#K"/><use transform="matrix(0.06172839506172839,0,0,0.06172839506172839,14.814814814814813,0)" xlink:href="#L"/><use transform="matrix(0.06172839506172839,0,0,0.06172839506172839,25.925925925925924,0)" xlink:href="#x"/><use transform="matrix(0.06172839506172839,0,0,0.06172839506172839,32.098765432098766,0)" xlink:href="#s"/><use transform="matrix(0.06172839506172839,0,0,0.06172839506172839,44.44444444444444,0)" xlink:href="#p"/><use transform="matrix(0.06172839506172839,0,0,0.06172839506172839,51.79012345679012,0)" xlink:href="#A"/><use transform="matrix(0.06172839506172839,0,0,0.06172839506172839,64.1358024691358,0)" xlink:href="#w"/><use transform="matrix(0.06172839506172839,0,0,0.06172839506172839,76.48148148148148,0)" xlink:href="#B"/></g><g id="j"><use transform="matrix(0.06172839506172839,0,0,0.06172839506172839,0,0)" xlink:href="#H"/><use transform="matrix(0.06172839506172839,0,0,0.06172839506172839,15.987654320987653,0)" xlink:href="#w"/><use transform="matrix(0.06172839506172839,0,0,0.06172839506172839,28.333333333333332,0)" xlink:href="#x"/><use transform="matrix(0.06172839506172839,0,0,0.06172839506172839,34.50617283950617,0)" xlink:href="#w"/></g><path fill="#0d0d0d" d="M185-189c-5-48-123-54-124 2 14 75 158 14 163 119 3 78-121 87-175 55-17-10-28-26-33-46l33-7c5 56 141 63 141-1 0-78-155-14-162-118-5-82 145-84 179-34 5 7 8 16 11 25" id="M"/><path fill="#0d0d0d" d="M96-169c-40 0-48 33-48 73s9 75 48 75c24 0 41-14 43-38l32 2c-6 37-31 61-74 61-59 0-76-41-82-99-10-93 101-131 147-64 4 7 5 14 7 22l-32 3c-4-21-16-35-41-35" id="N"/><path fill="#0d0d0d" d="M114-163C36-179 61-72 57 0H25l-1-190h30c1 12-1 29 2 39 6-27 23-49 58-41v29" id="O"/><path fill="#0d0d0d" d="M24-231v-30h32v30H24zM24 0v-190h32V0H24" id="P"/><path fill="#0d0d0d" d="M115-194c55 1 70 41 70 98S169 2 115 4C84 4 66-9 55-30l1 105H24l-1-265h31l2 30c10-21 28-34 59-34zm-8 174c40 0 45-34 45-75s-6-73-45-74c-42 0-51 32-51 76 0 43 10 73 51 73" id="Q"/><path fill="#0d0d0d" d="M59-47c-2 24 18 29 38 22v24C64 9 27 4 27-40v-127H5v-23h24l9-43h21v43h35v23H59v120" id="R"/><path fill="#0d0d0d" d="M135-143c-3-34-86-38-87 0 15 53 115 12 119 90S17 21 10-45l28-5c4 36 97 45 98 0-10-56-113-15-118-90-4-57 82-63 122-42 12 7 21 19 24 35" id="S"/><g id="k"><use transform="matrix(0.05925925925925927,0,0,0.05925925925925927,0,0)" xlink:href="#M"/><use transform="matrix(0.05925925925925927,0,0,0.05925925925925927,14.222222222222225,0)" xlink:href="#N"/><use transform="matrix(0.05925925925925927,0,0,0.05925925925925927,24.888888888888893,0)" xlink:href="#O"/><use transform="matrix(0.05925925925925927,0,0,0.05925925925925927,31.940740740740747,0)" xlink:href="#P"/><use transform="matrix(0.05925925925925927,0,0,0.05925925925925927,36.62222222222223,0)" xlink:href="#Q"/><use transform="matrix(0.05925925925925927,0,0,0.05925925925925927,48.47407407407408,0)" xlink:href="#R"/><use transform="matrix(0.05925925925925927,0,0,0.05925925925925927,54.400000000000006,0)" xlink:href="#S"/></g><path fill="#0d0d0d" d="M212-179c-10-28-35-45-73-45-59 0-87 40-87 99 0 60 29 101 89 101 43 0 62-24 78-52l27 14C228-24 195 4 139 4 59 4 22-46 18-125c-6-104 99-153 187-111 19 9 31 26 39 46" id="T"/><path fill="#0d0d0d" d="M100-194c62-1 85 37 85 99 1 63-27 99-86 99S16-35 15-95c0-66 28-99 85-99zM99-20c44 1 53-31 53-75 0-43-8-75-51-75s-53 32-53 75 10 74 51 75" id="U"/><path fill="#0d0d0d" d="M117-194c89-4 53 116 60 194h-32v-121c0-31-8-49-39-48C34-167 62-67 57 0H25l-1-190h30c1 10-1 24 2 32 11-22 29-35 61-36" id="V"/><path fill="#0d0d0d" d="M141-36C126-15 110 5 73 4 37 3 15-17 15-53c-1-64 63-63 125-63 3-35-9-54-41-54-24 1-41 7-42 31l-33-3c5-37 33-52 76-52 45 0 72 20 72 64v82c-1 20 7 32 28 27v20c-31 9-61-2-59-35zM48-53c0 20 12 33 32 33 41-3 63-29 60-74-43 2-92-5-92 41" id="W"/><path fill="#0d0d0d" d="M100-194c63 0 86 42 84 106H49c0 40 14 67 53 68 26 1 43-12 49-29l28 8c-11 28-37 45-77 45C44 4 14-33 15-96c1-61 26-98 85-98zm52 81c6-60-76-77-97-28-3 7-6 17-6 28h103" id="X"/><g id="l"><use transform="matrix(0.05925925925925927,0,0,0.05925925925925927,0,0)" xlink:href="#T"/><use transform="matrix(0.05925925925925927,0,0,0.05925925925925927,15.34814814814815,0)" xlink:href="#U"/><use transform="matrix(0.05925925925925927,0,0,0.05925925925925927,27.200000000000003,0)" xlink:href="#V"/><use transform="matrix(0.05925925925925927,0,0,0.05925925925925927,39.05185185185186,0)" xlink:href="#R"/><use transform="matrix(0.05925925925925927,0,0,0.05925925925925927,44.97777777777778,0)" xlink:href="#W"/><use transform="matrix(0.05925925925925927,0,0,0.05925925925925927,56.829629629629636,0)" xlink:href="#P"/><use transform="matrix(0.05925925925925927,0,0,0.05925925925925927,61.51111111111112,0)" xlink:href="#V"/><use transform="matrix(0.05925925925925927,0,0,0.05925925925925927,73.36296296296297,0)" xlink:href="#X"/><use transform="matrix(0.05925925925925927,0,0,0.05925925925925927,85.21481481481482,0)" xlink:href="#O"/></g><path fill="#3a414a" d="M185-189c-5-48-123-54-124 2 14 75 158 14 163 119 3 78-121 87-175 55-17-10-28-26-33-46l33-7c5 56 141 63 141-1 0-78-155-14-162-118-5-82 145-84 179-34 5 7 8 16 11 25" id="Y"/><path fill="#3a414a" d="M140-251c81 0 123 46 123 126C263-53 228-8 163 1c7 30 30 48 69 40v23c-55 16-95-15-103-61C56-3 17-48 17-125c0-80 42-126 123-126zm0 227c63 0 89-41 89-101s-29-99-89-99c-61 0-89 39-89 99S79-25 140-24" id="Z"/><path fill="#3a414a" d="M30 0v-248h33v221h125V0H30" id="aa"/><g id="m"><use transform="matrix(0.06172839506172839,0,0,0.06172839506172839,0,0)" xlink:href="#G"/><use transform="matrix(0.06172839506172839,0,0,0.06172839506172839,14.814814814814813,0)" xlink:href="#q"/><use transform="matrix(0.06172839506172839,0,0,0.06172839506172839,27.160493827160494,0)" xlink:href="#t"/><use transform="matrix(0.06172839506172839,0,0,0.06172839506172839,38.27160493827161,0)" xlink:href="#x"/><use transform="matrix(0.06172839506172839,0,0,0.06172839506172839,44.44444444444445,0)" xlink:href="#D"/><use transform="matrix(0.06172839506172839,0,0,0.06172839506172839,56.79012345679013,0)" xlink:href="#p"/><use transform="matrix(0.06172839506172839,0,0,0.06172839506172839,64.13580246913581,0)" xlink:href="#s"/><use transform="matrix(0.06172839506172839,0,0,0.06172839506172839,76.4814814814815,0)" xlink:href="#Y"/><use transform="matrix(0.06172839506172839,0,0,0.06172839506172839,91.2962962962963,0)" xlink:href="#Z"/><use transform="matrix(0.06172839506172839,0,0,0.06172839506172839,108.58024691358025,0)" xlink:href="#aa"/></g><path fill="#3a414a" d="M212-179c-10-28-35-45-73-45-59 0-87 40-87 99 0 60 29 101 89 101 43 0 62-24 78-52l27 14C228-24 195 4 139 4 59 4 22-46 18-125c-6-104 99-153 187-111 19 9 31 26 39 46" id="ab"/><g id="n"><use transform="matrix(0.06172839506172839,0,0,0.06172839506172839,0,0)" xlink:href="#ab"/><use transform="matrix(0.06172839506172839,0,0,0.06172839506172839,15.987654320987653,0)" xlink:href="#q"/><use transform="matrix(0.06172839506172839,0,0,0.06172839506172839,28.333333333333332,0)" xlink:href="#A"/><use transform="matrix(0.06172839506172839,0,0,0.06172839506172839,40.67901234567901,0)" xlink:href="#x"/><use transform="matrix(0.06172839506172839,0,0,0.06172839506172839,46.851851851851855,0)" xlink:href="#F"/><use transform="matrix(0.06172839506172839,0,0,0.06172839506172839,51.7283950617284,0)" xlink:href="#A"/><use transform="matrix(0.06172839506172839,0,0,0.06172839506172839,64.07407407407408,0)" xlink:href="#s"/><use transform="matrix(0.06172839506172839,0,0,0.06172839506172839,76.41975308641976,0)" xlink:href="#p"/></g></defs></g></svg>